<svg viewBox="0 0 200 240" xmlns="http://www.w3.org/2000/svg">
  <!-- 左の羽 -->
  <g>
    <path d="M 70 60 Q 60 40 55 30" stroke="black" stroke-width="8" fill="none" stroke-linecap="round"/>
    <path d="M 70 75 Q 58 50 50 35" stroke="black" stroke-width="8" fill="none" stroke-linecap="round"/>
    <path d="M 75 90 Q 65 60 58 40" stroke="black" stroke-width="8" fill="none" stroke-linecap="round"/>
    <!-- 羽の内側の白色部分 -->
    <path d="M 68 65 Q 62 48 58 38" stroke="white" stroke-width="4" fill="none" stroke-linecap="round"/>
    <path d="M 72 78 Q 62 55 54 40" stroke="white" stroke-width="4" fill="none" stroke-linecap="round"/>
  </g>

  <!-- 右の羽 -->
  <g>
    <path d="M 130 60 Q 140 40 145 30" stroke="black" stroke-width="8" fill="none" stroke-linecap="round"/>
    <path d="M 130 75 Q 142 50 150 35" stroke="black" stroke-width="8" fill="none" stroke-linecap="round"/>
    <path d="M 125 90 Q 135 60 142 40" stroke="black" stroke-width="8" fill="none" stroke-linecap="round"/>
    <!-- 羽の内側の白色部分 -->
    <path d="M 132 65 Q 138 48 142 38" stroke="white" stroke-width="4" fill="none" stroke-linecap="round"/>
    <path d="M 128 78 Q 138 55 146 40" stroke="white" stroke-width="4" fill="none" stroke-linecap="round"/>
  </g>

  <!-- 左の手 -->
  <ellipse cx="65" cy="130" rx="12" ry="28" fill="white" stroke="black" stroke-width="8"/>
  <ellipse cx="65" cy="130" rx="8" ry="24" fill="white"/>

  <!-- 右の手 -->
  <ellipse cx="135" cy="130" rx="12" ry="28" fill="white" stroke="black" stroke-width="8"/>
  <ellipse cx="135" cy="130" rx="8" ry="24" fill="white"/>

  <!-- 本体（円形） -->
  <circle cx="100" cy="120" r="65" fill="white" stroke="black" stroke-width="8"/>

  <!-- グラデーション影（下部） -->
  <ellipse cx="100" cy="175" rx="55" ry="12" fill="rgba(180, 180, 180, 0.15)"/>

  <!-- 目（左） -->
  <rect x="82" y="105" width="12" height="12" fill="black" rx="2"/>

  <!-- 目（右） -->
  <rect x="106" y="105" width="12" height="12" fill="black" rx="2"/>

  <!-- 口 -->
  <ellipse cx="100" cy="135" rx="10" ry="8" fill="black"/>

  <!-- 左足 -->
  <ellipse cx="85" cy="185" rx="10" ry="14" fill="white" stroke="black" stroke-width="8"/>

  <!-- 右足 -->
  <ellipse cx="115" cy="185" rx="10" ry="14" fill="white" stroke="black" stroke-width="8"/>
</svg>
