<svg viewBox="0 0 220 260" xmlns="http://www.w3.org/2000/svg">

  <!-- 左えら（3本：外黒・内白） -->
  <path d="M72 88 Q58 66 48 44" stroke="black" stroke-width="9" fill="none" stroke-linecap="round"/>
  <path d="M68 84 Q50 60 38 40" stroke="black" stroke-width="9" fill="none" stroke-linecap="round"/>
  <path d="M66 92 Q52 72 44 54" stroke="black" stroke-width="9" fill="none" stroke-linecap="round"/>
  <path d="M72 88 Q58 66 48 44" stroke="white" stroke-width="3.5" fill="none" stroke-linecap="round"/>
  <path d="M68 84 Q50 60 38 40" stroke="white" stroke-width="3.5" fill="none" stroke-linecap="round"/>
  <path d="M66 92 Q52 72 44 54" stroke="white" stroke-width="3.5" fill="none" stroke-linecap="round"/>

  <!-- 右えら（3本：外黒・内白） -->
  <path d="M148 78 Q162 56 172 34" stroke="black" stroke-width="9" fill="none" stroke-linecap="round"/>
  <path d="M152 74 Q170 50 182 30" stroke="black" stroke-width="9" fill="none" stroke-linecap="round"/>
  <path d="M152 82 Q168 62 176 44" stroke="black" stroke-width="9" fill="none" stroke-linecap="round"/>
  <path d="M148 78 Q162 56 172 34" stroke="white" stroke-width="3.5" fill="none" stroke-linecap="round"/>
  <path d="M152 74 Q170 50 182 30" stroke="white" stroke-width="3.5" fill="none" stroke-linecap="round"/>
  <path d="M152 82 Q168 62 176 44" stroke="white" stroke-width="3.5" fill="none" stroke-linecap="round"/>

  <!-- 尻尾（右） -->
  <path d="M178 148 Q205 135 202 162 Q198 178 178 168" fill="white" stroke="black" stroke-width="7" stroke-linejoin="round"/>

  <!-- 左手 -->
  <ellipse cx="36" cy="150" rx="14" ry="20" fill="white" stroke="black" stroke-width="7" transform="rotate(-20 36 150)"/>

  <!-- 足（左・中・右） -->
  <ellipse cx="78" cy="207" rx="20" ry="13" fill="white" stroke="black" stroke-width="7" transform="rotate(-12 78 207)"/>
  <ellipse cx="112" cy="212" rx="20" ry="13" fill="white" stroke="black" stroke-width="7"/>
  <ellipse cx="146" cy="207" rx="20" ry="13" fill="white" stroke="black" stroke-width="7" transform="rotate(12 146 207)"/>

  <!-- 本体（白い大きな楕円） -->
  <ellipse cx="112" cy="148" rx="84" ry="72" fill="white" stroke="black" stroke-width="8"/>

  <!-- 体の下部グレー影 -->
  <ellipse cx="112" cy="188" rx="64" ry="18" fill="rgba(180,180,180,0.25)"/>

  <!-- 目（黒い四角） -->
  <rect x="82" y="134" width="18" height="17" fill="black" rx="3"/>
  <rect x="120" y="134" width="18" height="17" fill="black" rx="3"/>

  <!-- 鼻/口（小さい四角） -->
  <rect x="102" y="160" width="14" height="11" fill="black" rx="3"/>

  <!-- 地面の跳ね上がり（砂ぼこり） -->
  <ellipse cx="112" cy="248" rx="30" ry="7" fill="rgba(0,0,0,0.07)"/>
  <path d="M92 242 Q90 236 94 232" stroke="black" stroke-width="2.5" fill="none" stroke-linecap="round"/>
  <path d="M100 244 Q98 236 101 230" stroke="black" stroke-width="2.5" fill="none" stroke-linecap="round"/>
  <path d="M112 246 Q110 238 112 232" stroke="black" stroke-width="2.5" fill="none" stroke-linecap="round"/>
  <path d="M122 244 Q124 236 122 230" stroke="black" stroke-width="2.5" fill="none" stroke-linecap="round"/>
  <path d="M132 242 Q134 236 130 232" stroke="black" stroke-width="2.5" fill="none" stroke-linecap="round"/>
</svg>
